<svg width="11" height="14" viewBox="0 0 11 14" fill="none" xmlns="http://www.w3.org/2000/svg">
<path d="M2.38867 13.0508C1.7832 13.0508 1.32812 12.8984 1.02344 12.5938C0.722656 12.2891 0.572266 11.8301 0.572266 11.2168V2.32812C0.572266 1.71875 0.722656 1.25977 1.02344 0.951172C1.32812 0.642578 1.7832 0.488281 2.38867 0.488281H5.17188C5.39062 0.488281 5.58203 0.503906 5.74609 0.535156C5.91406 0.5625 6.06836 0.617188 6.20898 0.699219C6.34961 0.777344 6.49414 0.892578 6.64258 1.04492L9.87109 4.33203C10.0273 4.49219 10.1445 4.64453 10.2227 4.78906C10.3047 4.92969 10.3594 5.08594 10.3867 5.25781C10.4141 5.42969 10.4277 5.64258 10.4277 5.89648V11.2168C10.4277 11.8262 10.2754 12.2832 9.9707 12.5879C9.66992 12.8965 9.2168 13.0508 8.61133 13.0508H2.38867ZM2.42969 12.1074H8.56445C8.86914 12.1074 9.09766 12.0293 9.25 11.873C9.40625 11.7168 9.48438 11.4922 9.48438 11.1992V5.9375H6.14453C5.77734 5.9375 5.50195 5.8457 5.31836 5.66211C5.13477 5.47852 5.04297 5.20312 5.04297 4.83594V1.43164H2.43555C2.13086 1.43164 1.90039 1.51172 1.74414 1.67188C1.5918 1.83203 1.51562 2.05664 1.51562 2.3457V11.1992C1.51562 11.4922 1.5918 11.7168 1.74414 11.873C1.90039 12.0293 2.12891 12.1074 2.42969 12.1074ZM6.25 5.05273H9.30273L5.92773 1.61328V4.72461C5.92773 4.8418 5.95117 4.92578 5.99805 4.97656C6.04883 5.02734 6.13281 5.05273 6.25 5.05273Z" fill="#1E5FF0"/>
</svg>
