<svg width="16" height="13" viewBox="0 0 16 13" fill="none" xmlns="http://www.w3.org/2000/svg">
<path d="M5.46289 12.3945C4.95117 12.3945 4.5625 12.2656 4.29688 12.0078C4.03125 11.75 3.89844 11.3672 3.89844 10.8594L5.87305 9.14258C5.98633 9.04883 6.09766 8.97852 6.20703 8.93164C6.32031 8.88086 6.43359 8.85547 6.54688 8.85547C6.67188 8.85547 6.79297 8.87891 6.91016 8.92578C7.03125 8.97266 7.14844 9.04883 7.26172 9.1543L8.20508 10.0039L10.5723 7.90625C10.6934 7.79688 10.8184 7.71875 10.9473 7.67188C11.0762 7.62109 11.2148 7.5957 11.3633 7.5957C11.5039 7.5957 11.6426 7.62305 11.7793 7.67773C11.916 7.72852 12.041 7.80664 12.1543 7.91211L14.873 10.4785V10.8535C14.873 11.3652 14.7402 11.75 14.4746 12.0078C14.209 12.2656 13.8203 12.3945 13.3086 12.3945H5.46289ZM7.7832 8.04102C7.43945 8.04102 7.14648 7.91797 6.9043 7.67188C6.66211 7.42578 6.54102 7.13086 6.54102 6.78711C6.54102 6.45117 6.66211 6.16016 6.9043 5.91406C7.14648 5.66797 7.43945 5.54492 7.7832 5.54492C8.00977 5.54492 8.2168 5.60156 8.4043 5.71484C8.5918 5.82812 8.74023 5.98047 8.84961 6.17188C8.96289 6.35938 9.01953 6.56445 9.01953 6.78711C9.01953 7.13086 8.89844 7.42578 8.65625 7.67188C8.41406 7.91797 8.12305 8.04102 7.7832 8.04102ZM2.55078 9.99219C1.9375 9.99219 1.47656 9.8418 1.16797 9.54102C0.863281 9.23633 0.710938 8.78125 0.710938 8.17578V2.65039C0.710938 2.04492 0.863281 1.5918 1.16797 1.29102C1.47656 0.986328 1.9375 0.833984 2.55078 0.833984H10.5547C11.1641 0.833984 11.623 0.986328 11.9316 1.29102C12.2402 1.5957 12.3945 2.04883 12.3945 2.65039V3.92773H11.4512V2.70312C11.4512 2.39844 11.3711 2.16797 11.2109 2.01172C11.0508 1.85547 10.8262 1.77734 10.5371 1.77734H2.5625C2.26953 1.77734 2.04492 1.85547 1.88867 2.01172C1.73242 2.16797 1.6543 2.39844 1.6543 2.70312V8.12891C1.6543 8.43359 1.73242 8.66406 1.88867 8.82031C2.04492 8.97266 2.26953 9.04883 2.5625 9.04883H4.00391V9.99219H2.55078ZM5.44531 12.7051C4.83203 12.7051 4.37109 12.5527 4.0625 12.248C3.75781 11.9473 3.60547 11.4941 3.60547 10.8887V5.36328C3.60547 4.75781 3.75781 4.30469 4.0625 4.00391C4.37109 3.69922 4.83203 3.54688 5.44531 3.54688H13.4492C14.0586 3.54688 14.5176 3.69922 14.8262 4.00391C15.1348 4.30859 15.2891 4.76172 15.2891 5.36328V10.8887C15.2891 11.4941 15.1348 11.9473 14.8262 12.248C14.5176 12.5527 14.0586 12.7051 13.4492 12.7051H5.44531ZM5.45703 11.7617H13.4316C13.7207 11.7617 13.9453 11.6836 14.1055 11.5273C14.2656 11.375 14.3457 11.1465 14.3457 10.8418V5.41602C14.3457 5.11133 14.2656 4.88086 14.1055 4.72461C13.9453 4.56836 13.7207 4.49023 13.4316 4.49023H5.45703C5.16406 4.49023 4.93945 4.56836 4.7832 4.72461C4.62695 4.88086 4.54883 5.11133 4.54883 5.41602V10.8418C4.54883 11.1465 4.62695 11.375 4.7832 11.5273C4.93945 11.6836 5.16406 11.7617 5.45703 11.7617Z" fill="#1E5FF0"/>
</svg>
